<?xml version="1.0" encoding="utf-8"?>
<!-- Generator: Adobe Illustrator 27.9.0, SVG Export Plug-In . SVG Version: 6.00 Build 0)  -->
<svg version="1.1" id="Layer_1" xmlns="http://www.w3.org/2000/svg" xmlns:xlink="http://www.w3.org/1999/xlink" x="0px" y="0px"
	 viewBox="0 0 389 120.4" style="enable-background:new 0 0 389 120.4;" xml:space="preserve">
<style type="text/css">
	.st0{fill:#FFFFFF;}
</style>
<path class="st0" d="M173.9,36.7c0-1.2,0-2,0-2.7c0-10.5,0.1-21,0-31.6c0-1.8,0.5-2.4,2.3-2.4c4.5,0.1,8.9,0.1,13.4,0
	c1.6,0,2.1,0.5,2,2c-0.1,10.1-0.1,20.2-0.1,30.4c0,28.2,0,56.5,0,84.7c0,2.8,0,2.8-2.8,2.8c-4.2,0-8.4-0.1-12.6,0
	c-1.9,0.1-2.4-0.6-2.3-2.4c0.1-1.7,0-3.4,0-5.7c-1.2,0.7-1.9,1.2-2.6,1.6c-11.8,7.4-24.2,8.4-36.7,2.7c-11-5-18.3-13.8-22.2-25.2
	c-4.8-14-4-27.8,3.4-40.7c8.2-14.3,20.6-22,37.4-21.3c6.4,0.3,12.3,2.6,17.8,5.9C171.8,35.4,172.6,35.9,173.9,36.7z M173.9,75.1
	c0-7.4-1.9-13.6-6-19.2c-8.3-11.5-23.4-12.6-33.1-2.3c-10.2,10.8-10.4,29.9-0.4,40.9c9.1,10.1,22.4,10.3,31.7,0.4
	C171.5,89.2,173.9,82.3,173.9,75.1z"/>
<path class="st0" d="M236.4,73.9c15.2,15.2,30.2,30.3,45.5,45.5c-0.9,0-1.6,0-2.3,0c-6.7,0-13.4-0.1-20.2,0c-1.4,0-2.3-0.4-3.3-1.4
	c-10-10-19.9-20-29.9-29.9c-2.3-2.3-1.8-2.4-4.2,0.1c-1.7,1.7-3.4,3.6-5.2,5.2c-1.1,1-1.5,2.2-1.5,3.7c0.1,6.7,0,13.5,0.1,20.2
	c0,1.8-0.5,2.3-2.3,2.2c-4.4-0.1-8.8-0.1-13.2,0c-1.9,0.1-2.4-0.6-2.3-2.4c0.1-26,0-51.9,0-77.9c0-12.3,0-24.6,0-37
	c0-1.9,0.5-2.5,2.4-2.5c4.3,0.1,8.5,0,12.8,0c2.5,0,2.5,0,2.6,2.7c0,21.4,0.1,42.8,0.1,64.1c0,0.8,0,1.5,0,2.9c1-0.9,1.6-1.5,2.2-2
	c12.6-12.6,25.2-25.1,37.7-37.7c1.1-1.1,2.1-1.5,3.7-1.5c6.2,0.1,12.4,0,18.6,0.1c0.9,0,1.8,0.5,2.8,0.8c0,0.3,0.1,0.5,0.1,0.8
	C265.9,44.5,251.3,59.1,236.4,73.9z"/>
</svg>
