<svg id="Layer_1" data-name="Layer 1" xmlns="http://www.w3.org/2000/svg" viewBox="0 0 425.98 120.4">
  <defs>
    <style>
      .cls-1 {
        fill: #fff;
      }
    </style>
  </defs>
  <g>
    <path class="cls-1" d="m176.48,79.81h-10.74V18.66h10.74v61.15Z"/>
    <path class="cls-1" d="m217.62,27.4v52.41h-10.74l.04-52.41h-17.95v-8.74h46.56v8.74h-17.91Z"/>
    <path class="cls-1" d="m274.7,62.34h-16.2v17.47h-10.74v-43.68c0-11.65,7.16-17.47,21.49-17.47h7.16c14.33,0,21.49,5.82,21.49,17.47v8.74c0,8.42-3.74,13.79-11.23,16.12l12.67,18.82h-12.88l-11.75-17.47Zm-16.2-8.74h17.91c7.16,0,10.74-2.91,10.74-8.74v-8.74c0-5.82-3.58-8.74-10.74-8.74h-7.16c-7.16,0-10.74,2.91-10.74,8.74v17.47Z"/>
    <path class="cls-1" d="m325.22,44.87h32.23v8.74h-32.23v8.74c0,5.82,3.58,8.74,10.74,8.74h25.07v8.74h-25.07c-14.33,0-21.49-5.82-21.49-17.47v-26.21c0-11.65,7.16-17.47,21.49-17.47h25.07v8.74h-25.07c-7.16,0-10.74,2.91-10.74,8.74v8.74Z"/>
    <path class="cls-1" d="m404.49,18.66c14.33,0,21.49,5.82,21.49,17.47h-10.74c0-5.82-3.58-8.74-10.74-8.74h-7.16c-7.16,0-10.74,2.91-10.74,8.74v26.21c0,5.82,3.58,8.74,10.74,8.74h7.16c7.16,0,10.74-2.91,10.74-8.74v-8.74h-17.91v-8.74h28.65v17.47c0,11.65-7.16,17.47-21.49,17.47h-7.16c-14.33,0-21.49-5.82-21.49-17.47v-26.21c0-11.65,7.16-17.47,21.49-17.47h7.16Z"/>
  </g>
  <g>
    <path class="cls-1" d="m161.22,116.03l3.22-3.85c2.23,1.84,4.56,3,7.38,3,2.23,0,3.57-.88,3.57-2.33v-.07c0-1.38-.85-2.08-4.98-3.15-4.98-1.27-8.2-2.65-8.2-7.56v-.07c0-4.49,3.6-7.46,8.66-7.46,3.6,0,6.68,1.13,9.19,3.14l-2.83,4.1c-2.19-1.52-4.35-2.44-6.43-2.44s-3.18.95-3.18,2.16v.07c0,1.62,1.06,2.16,5.34,3.25,5.02,1.31,7.84,3.11,7.84,7.42v.07c0,4.91-3.75,7.67-9.08,7.67-3.75,0-7.53-1.31-10.49-3.96Z"/>
    <path class="cls-1" d="m197.83,99.92h-7.53v-5.02h20.49v5.02h-7.53v19.72h-5.44v-19.72Z"/>
    <path class="cls-1" d="m221.64,109.03v-14.13h5.44v13.99c0,4.03,2.01,6.11,5.34,6.11s5.34-2.01,5.34-5.94v-14.17h5.44v13.96c0,7.49-4.2,11.17-10.85,11.17s-10.71-3.71-10.71-10.99Z"/>
    <path class="cls-1" d="m255.81,94.9h9.65c7.77,0,13.14,5.34,13.14,12.3v.07c0,6.96-5.37,12.37-13.14,12.37h-9.65v-24.73Zm9.65,19.82c4.45,0,7.46-3,7.46-7.38v-.07c0-4.38-3-7.46-7.46-7.46h-4.2v14.91h4.2Z"/>
    <path class="cls-1" d="m290.75,94.9h5.44v24.73h-5.44v-24.73Z"/>
    <path class="cls-1" d="m308.34,107.34v-.07c0-7.03,5.55-12.79,13.18-12.79s13.11,5.69,13.11,12.72v.07c0,7.03-5.55,12.79-13.18,12.79s-13.11-5.69-13.11-12.72Zm20.6,0v-.07c0-4.24-3.11-7.77-7.49-7.77s-7.42,3.46-7.42,7.7v.07c0,4.24,3.11,7.77,7.49,7.77s7.42-3.46,7.42-7.7Z"/>
    <path class="cls-1" d="m344.66,116.03l3.22-3.85c2.23,1.84,4.56,3,7.38,3,2.23,0,3.57-.88,3.57-2.33v-.07c0-1.38-.85-2.08-4.98-3.15-4.98-1.27-8.2-2.65-8.2-7.56v-.07c0-4.49,3.6-7.46,8.66-7.46,3.6,0,6.68,1.13,9.19,3.14l-2.83,4.1c-2.19-1.52-4.35-2.44-6.43-2.44s-3.18.95-3.18,2.16v.07c0,1.62,1.06,2.16,5.34,3.25,5.02,1.31,7.84,3.11,7.84,7.42v.07c0,4.91-3.75,7.67-9.08,7.67-3.75,0-7.53-1.31-10.49-3.96Z"/>
  </g>
  <path class="cls-1" d="m152.15,55.14v-26.29c0-5.31-2.18-10.39-6.03-14.04l-11.61-11.01c-3.84-3.66-9.44-4.78-14.4-2.9l-29.65,11.21s-.02,0-.03.01c-1.26.48-2.1,1.66-2.1,3v10.39c0,4.19-3.4,7.59-7.6,7.59h-9.3c-4.2,0-7.6-3.4-7.6-7.59v-10.39c0-1.34-.84-2.54-2.11-3.01,0,0-.01,0-.02,0L32.04.89c-4.96-1.88-10.56-.75-14.4,2.9L6.03,14.81C2.18,18.46,0,23.55,0,28.85v26.29c0,3.88,1.72,7.56,4.71,10.03l2.41,2.01-4.97,27.3c-.24,1.34-.36,2.67-.36,3.98,0,11.86,9.65,21.93,22.02,21.93,11.26,0,21.46-6.65,25.98-16.95l8.46-19.27c1.98-4.52,6.46-7.44,11.4-7.44h12.86c4.94,0,9.42,2.92,11.4,7.44l8.46,19.27c4.52,10.31,14.72,16.95,25.98,16.95,13.73,0,24.11-12.41,21.66-25.91l-4.97-27.3,2.41-2.01c2.98-2.48,4.71-6.15,4.71-10.03Z"/>
</svg>